<svg width="720" height="50" viewBox="0 0 720 50" fill="none" xmlns="http://www.w3.org/2000/svg">
<path d="M196.405 20.04H203.445V12.8H206.325V20.04H213.365V22.92H206.325V30.12H203.445V22.92H196.405V20.04ZM219.4 35L229.44 11.56L231.2 9.6L228.84 9.96H217.44V7H234.16V8.08L222.64 35H219.4ZM254.393 43.8C253.166 42.52 252.126 41.1067 251.273 39.56C250.419 38.04 249.726 36.48 249.193 34.88C248.686 33.2533 248.313 31.6267 248.073 30C247.833 28.3467 247.713 26.7733 247.713 25.28C247.713 23.8133 247.833 22.2667 248.073 20.64C248.313 19.0133 248.699 17.3867 249.233 15.76C249.766 14.1067 250.459 12.4933 251.313 10.92C252.193 9.34667 253.259 7.88 254.513 6.52L256.433 7.92C255.366 9.28 254.473 10.6933 253.753 12.16C253.059 13.6 252.499 15.0667 252.073 16.56C251.646 18.0533 251.339 19.5467 251.153 21.04C250.993 22.5067 250.913 23.92 250.913 25.28C250.913 26.56 251.006 27.96 251.192 29.48C251.406 30.9733 251.726 32.48 252.153 34C252.606 35.4933 253.179 36.96 253.873 38.4C254.593 39.84 255.446 41.1467 256.433 42.32L254.393 43.8ZM259.243 28.32C259.243 26.64 259.683 25.1867 260.563 23.96C261.443 22.7067 262.817 21.5733 264.683 20.56C264.017 20.16 263.39 19.7467 262.803 19.32C262.243 18.8667 261.737 18.36 261.283 17.8C260.857 17.24 260.51 16.6133 260.243 15.92C260.003 15.2267 259.883 14.4267 259.883 13.52C259.883 12.48 260.057 11.5333 260.403 10.68C260.777 9.82666 261.297 9.09333 261.963 8.48C262.657 7.86666 263.47 7.38666 264.403 7.04C265.363 6.69333 266.443 6.52 267.643 6.52C268.763 6.52 269.777 6.68 270.683 7C271.59 7.32 272.35 7.76 272.963 8.32C273.603 8.88 274.097 9.54667 274.443 10.32C274.79 11.0933 274.963 11.9467 274.963 12.88C274.963 14.4 274.617 15.7467 273.923 16.92C273.23 18.0667 272.083 19.2 270.483 20.32C271.177 20.72 271.83 21.16 272.443 21.64C273.083 22.12 273.63 22.6533 274.083 23.24C274.563 23.8267 274.937 24.4933 275.203 25.24C275.47 25.96 275.603 26.7867 275.603 27.72C275.603 28.8667 275.417 29.92 275.043 30.88C274.67 31.8133 274.123 32.6267 273.403 33.32C272.683 33.9867 271.803 34.52 270.763 34.92C269.723 35.2933 268.537 35.48 267.203 35.48C265.923 35.48 264.79 35.2933 263.803 34.92C262.817 34.5467 261.977 34.04 261.283 33.4C260.617 32.76 260.11 32.0133 259.763 31.16C259.417 30.28 259.243 29.3333 259.243 28.32ZM272.483 27.92C272.483 27.12 272.323 26.4267 272.003 25.84C271.683 25.2267 271.257 24.68 270.723 24.2C270.217 23.6933 269.63 23.24 268.963 22.84C268.297 22.44 267.603 22.0533 266.883 21.68C265.257 22.5867 264.097 23.6 263.403 24.72C262.71 25.84 262.363 26.9067 262.363 27.92C262.363 28.56 262.47 29.1733 262.683 29.76C262.897 30.3467 263.217 30.8533 263.643 31.28C264.07 31.7067 264.59 32.0533 265.203 32.32C265.843 32.56 266.577 32.68 267.403 32.68C268.07 32.68 268.71 32.5867 269.323 32.4C269.937 32.1867 270.47 31.8933 270.923 31.52C271.403 31.12 271.777 30.6267 272.043 30.04C272.337 29.4267 272.483 28.72 272.483 27.92ZM263.003 13.44C263.003 14.1867 263.15 14.8533 263.443 15.44C263.737 16 264.123 16.5067 264.603 16.96C265.11 17.4133 265.683 17.84 266.323 18.24C266.963 18.6133 267.63 18.9733 268.323 19.32C269.523 18.3867 270.403 17.4667 270.963 16.56C271.55 15.6533 271.843 14.6533 271.843 13.56C271.843 12.2 271.417 11.16 270.563 10.44C269.737 9.69333 268.737 9.32 267.563 9.32C266.843 9.32 266.203 9.44 265.643 9.68C265.083 9.92 264.603 10.2267 264.203 10.6C263.803 10.9733 263.497 11.4133 263.283 11.92C263.097 12.4 263.003 12.9067 263.003 13.44ZM282.64 32.04H288.24V12.68L288.64 10.32L287.04 12.2L282.64 15.36L281.12 13.32L289.92 6.52H291.36V32.04H296.84V35H282.64V32.04ZM317.957 13.36C317.957 14.7733 317.691 16.2267 317.157 17.72C316.651 19.1867 315.971 20.6667 315.117 22.16C314.291 23.6533 313.357 25.12 312.317 26.56C311.277 27.9733 310.237 29.32 309.197 30.6L307.237 32.32V32.48L309.797 32.04H318.517V35H302.597V33.84C303.184 33.2267 303.891 32.4667 304.717 31.56C305.544 30.6533 306.397 29.6533 307.277 28.56C308.184 27.44 309.064 26.2667 309.917 25.04C310.797 23.7867 311.584 22.52 312.277 21.24C312.997 19.96 313.571 18.6933 313.997 17.44C314.424 16.1867 314.637 15 314.637 13.88C314.637 12.5733 314.264 11.4933 313.517 10.64C312.771 9.76 311.637 9.32 310.117 9.32C309.104 9.32 308.117 9.53333 307.157 9.96C306.197 10.36 305.371 10.8267 304.677 11.36L303.357 9.08C304.291 8.28 305.397 7.65333 306.677 7.2C307.957 6.74667 309.331 6.52 310.797 6.52C311.944 6.52 312.957 6.69333 313.837 7.04C314.717 7.36 315.464 7.82667 316.077 8.44C316.691 9.05333 317.157 9.78667 317.477 10.64C317.797 11.4667 317.957 12.3733 317.957 13.36ZM324.034 6.52C325.261 7.8 326.301 9.21333 327.154 10.76C328.007 12.28 328.687 13.8533 329.194 15.48C329.727 17.08 330.114 18.7067 330.354 20.36C330.594 21.9867 330.714 23.5467 330.714 25.04C330.714 26.5067 330.594 28.0533 330.354 29.68C330.114 31.3067 329.727 32.9467 329.194 34.6C328.661 36.2267 327.954 37.8267 327.074 39.4C326.221 40.9733 325.167 42.44 323.914 43.8L321.994 42.4C323.061 41.04 323.954 39.6267 324.674 38.16C325.394 36.6933 325.954 35.2133 326.354 33.72C326.781 32.2267 327.074 30.7467 327.234 29.28C327.421 27.8133 327.514 26.4 327.514 25.04C327.514 23.76 327.407 22.3733 327.194 20.88C326.981 19.3867 326.647 17.88 326.194 16.36C325.767 14.84 325.207 13.36 324.514 11.92C323.821 10.48 322.981 9.17333 321.994 8L324.034 6.52ZM346.509 28.32C346.509 26.64 346.949 25.1867 347.829 23.96C348.709 22.7067 350.082 21.5733 351.949 20.56C351.282 20.16 350.656 19.7467 350.069 19.32C349.509 18.8667 349.002 18.36 348.549 17.8C348.122 17.24 347.776 16.6133 347.509 15.92C347.269 15.2267 347.149 14.4267 347.149 13.52C347.149 12.48 347.322 11.5333 347.669 10.68C348.042 9.82666 348.562 9.09333 349.229 8.48C349.922 7.86666 350.736 7.38666 351.669 7.04C352.629 6.69333 353.709 6.52 354.909 6.52C356.029 6.52 357.042 6.68 357.949 7C358.856 7.32 359.616 7.76 360.229 8.32C360.869 8.88 361.362 9.54667 361.709 10.32C362.056 11.0933 362.229 11.9467 362.229 12.88C362.229 14.4 361.882 15.7467 361.189 16.92C360.496 18.0667 359.349 19.2 357.749 20.32C358.442 20.72 359.096 21.16 359.709 21.64C360.349 22.12 360.896 22.6533 361.349 23.24C361.829 23.8267 362.202 24.4933 362.469 25.24C362.736 25.96 362.869 26.7867 362.869 27.72C362.869 28.8667 362.682 29.92 362.309 30.88C361.936 31.8133 361.389 32.6267 360.669 33.32C359.949 33.9867 359.069 34.52 358.029 34.92C356.989 35.2933 355.802 35.48 354.469 35.48C353.189 35.48 352.056 35.2933 351.069 34.92C350.082 34.5467 349.242 34.04 348.549 33.4C347.882 32.76 347.376 32.0133 347.029 31.16C346.682 30.28 346.509 29.3333 346.509 28.32ZM359.749 27.92C359.749 27.12 359.589 26.4267 359.269 25.84C358.949 25.2267 358.522 24.68 357.989 24.2C357.482 23.6933 356.896 23.24 356.229 22.84C355.562 22.44 354.869 22.0533 354.149 21.68C352.522 22.5867 351.362 23.6 350.669 24.72C349.976 25.84 349.629 26.9067 349.629 27.92C349.629 28.56 349.736 29.1733 349.949 29.76C350.162 30.3467 350.482 30.8533 350.909 31.28C351.336 31.7067 351.856 32.0533 352.469 32.32C353.109 32.56 353.842 32.68 354.669 32.68C355.336 32.68 355.976 32.5867 356.589 32.4C357.202 32.1867 357.736 31.8933 358.189 31.52C358.669 31.12 359.042 30.6267 359.309 30.04C359.602 29.4267 359.749 28.72 359.749 27.92ZM350.269 13.44C350.269 14.1867 350.416 14.8533 350.709 15.44C351.002 16 351.389 16.5067 351.869 16.96C352.376 17.4133 352.949 17.84 353.589 18.24C354.229 18.6133 354.896 18.9733 355.589 19.32C356.789 18.3867 357.669 17.4667 358.229 16.56C358.816 15.6533 359.109 14.6533 359.109 13.56C359.109 12.2 358.682 11.16 357.829 10.44C357.002 9.69333 356.002 9.32 354.829 9.32C354.109 9.32 353.469 9.44 352.909 9.68C352.349 9.92 351.869 10.2267 351.469 10.6C351.069 10.9733 350.762 11.4133 350.549 11.92C350.362 12.4 350.269 12.9067 350.269 13.44ZM369.906 32.04H375.506V12.68L375.906 10.32L374.306 12.2L369.906 15.36L368.386 13.32L377.186 6.52H378.626V32.04H384.106V35H369.906V32.04ZM405.223 13.36C405.223 14.7733 404.956 16.2267 404.423 17.72C403.916 19.1867 403.236 20.6667 402.383 22.16C401.556 23.6533 400.623 25.12 399.583 26.56C398.543 27.9733 397.503 29.32 396.463 30.6L394.503 32.32V32.48L397.063 32.04H405.783V35H389.863V33.84C390.449 33.2267 391.156 32.4667 391.983 31.56C392.809 30.6533 393.663 29.6533 394.543 28.56C395.449 27.44 396.329 26.2667 397.183 25.04C398.063 23.7867 398.849 22.52 399.543 21.24C400.263 19.96 400.836 18.6933 401.263 17.44C401.689 16.1867 401.903 15 401.903 13.88C401.903 12.5733 401.529 11.4933 400.783 10.64C400.036 9.76 398.903 9.32 397.383 9.32C396.369 9.32 395.383 9.53333 394.423 9.96C393.463 10.36 392.636 10.8267 391.943 11.36L390.623 9.08C391.556 8.28 392.663 7.65333 393.943 7.2C395.223 6.74667 396.596 6.52 398.063 6.52C399.209 6.52 400.223 6.69333 401.103 7.04C401.983 7.36 402.729 7.82667 403.343 8.44C403.956 9.05333 404.423 9.78667 404.743 10.64C405.063 11.4667 405.223 12.3733 405.223 13.36ZM411.54 22H421.22V24.96H411.54V22ZM427.914 32.04H433.514V12.68L433.914 10.32L432.314 12.2L427.914 15.36L426.394 13.32L435.194 6.52H436.634V32.04H442.114V35H427.914V32.04ZM463.231 13.36C463.231 14.7733 462.964 16.2267 462.431 17.72C461.924 19.1867 461.244 20.6667 460.391 22.16C459.564 23.6533 458.631 25.12 457.591 26.56C456.551 27.9733 455.511 29.32 454.471 30.6L452.511 32.32V32.48L455.071 32.04H463.791V35H447.871V33.84C448.457 33.2267 449.164 32.4667 449.991 31.56C450.817 30.6533 451.671 29.6533 452.551 28.56C453.457 27.44 454.337 26.2667 455.191 25.04C456.071 23.7867 456.857 22.52 457.551 21.24C458.271 19.96 458.844 18.6933 459.271 17.44C459.697 16.1867 459.911 15 459.911 13.88C459.911 12.5733 459.537 11.4933 458.791 10.64C458.044 9.76 456.911 9.32 455.391 9.32C454.377 9.32 453.391 9.53333 452.431 9.96C451.471 10.36 450.644 10.8267 449.951 11.36L448.631 9.08C449.564 8.28 450.671 7.65333 451.951 7.2C453.231 6.74667 454.604 6.52 456.071 6.52C457.217 6.52 458.231 6.69333 459.111 7.04C459.991 7.36 460.737 7.82667 461.351 8.44C461.964 9.05333 462.431 9.78667 462.751 10.64C463.071 11.4667 463.231 12.3733 463.231 13.36ZM469.548 22H479.228V24.96H469.548V22ZM485.922 32.04H491.522V12.68L491.922 10.32L490.322 12.2L485.922 15.36L484.402 13.32L493.202 6.52H494.642V32.04H500.122V35H485.922V32.04ZM521.238 13.36C521.238 14.7733 520.972 16.2267 520.438 17.72C519.932 19.1867 519.252 20.6667 518.398 22.16C517.572 23.6533 516.638 25.12 515.598 26.56C514.558 27.9733 513.518 29.32 512.478 30.6L510.518 32.32V32.48L513.078 32.04H521.798V35H505.878V33.84C506.465 33.2267 507.172 32.4667 507.998 31.56C508.825 30.6533 509.678 29.6533 510.558 28.56C511.465 27.44 512.345 26.2667 513.198 25.04C514.078 23.7867 514.865 22.52 515.558 21.24C516.278 19.96 516.852 18.6933 517.278 17.44C517.705 16.1867 517.918 15 517.918 13.88C517.918 12.5733 517.545 11.4933 516.798 10.64C516.052 9.76 514.918 9.32 513.398 9.32C512.385 9.32 511.398 9.53333 510.438 9.96C509.478 10.36 508.652 10.8267 507.958 11.36L506.638 9.08C507.572 8.28 508.678 7.65333 509.958 7.2C511.238 6.74667 512.612 6.52 514.078 6.52C515.225 6.52 516.238 6.69333 517.118 7.04C517.998 7.36 518.745 7.82667 519.358 8.44C519.972 9.05333 520.438 9.78667 520.758 10.64C521.078 11.4667 521.238 12.3733 521.238 13.36Z" fill="black"/>
</svg>
